<?xml version="1.0" encoding="utf-8" standalone="no"?>
<!DOCTYPE svg PUBLIC "-//W3C//DTD SVG 1.1//EN"
  "http://www.w3.org/Graphics/SVG/1.1/DTD/svg11.dtd">
<svg xmlns:xlink="http://www.w3.org/1999/xlink" width="432pt" height="432pt" viewBox="0 0 432 432" xmlns="http://www.w3.org/2000/svg" version="1.1">
 <metadata>
  <rdf:RDF xmlns:dc="http://purl.org/dc/elements/1.1/" xmlns:cc="http://creativecommons.org/ns#" xmlns:rdf="http://www.w3.org/1999/02/22-rdf-syntax-ns#">
   <cc:Work>
    <dc:type rdf:resource="http://purl.org/dc/dcmitype/StillImage"/>
    <dc:date>2023-07-29T13:05:04.513408</dc:date>
    <dc:format>image/svg+xml</dc:format>
    <dc:creator>
     <cc:Agent>
      <dc:title>Matplotlib v3.7.2, https://matplotlib.org/</dc:title>
     </cc:Agent>
    </dc:creator>
   </cc:Work>
  </rdf:RDF>
 </metadata>
 <defs>
  <style type="text/css">*{stroke-linejoin: round; stroke-linecap: butt}</style>
 </defs>
 <g id="figure_1">
  <g id="patch_1">
   <path d="M 0 432 
L 432 432 
L 432 0 
L 0 0 
z
" style="fill: #ffffff"/>
  </g>
  <g id="axes_1">
   <g id="patch_2">
    <path d="M 387.72 218.16 
C 387.72 196.319058 383.417811 174.690491 375.059644 154.512092 
C 366.701477 134.333692 354.449878 115.997879 339.006 100.554 
C 323.562121 85.110122 305.226308 72.858523 285.047908 64.500356 
C 264.869509 56.142189 243.240942 51.84 221.4 51.84 
C 199.559058 51.84 177.930491 56.142189 157.752092 64.500356 
C 137.573692 72.858523 119.237879 85.110122 103.794 100.554 
C 88.350122 115.997879 76.098523 134.333692 67.740356 154.512092 
C 59.382189 174.690491 55.08 196.319058 55.08 218.16 
C 55.08 240.000942 59.382189 261.629509 67.740356 281.807908 
C 76.098523 301.986308 88.350122 320.322121 103.794 335.766 
C 119.237879 351.209878 137.573692 363.461477 157.752092 371.819644 
C 177.930491 380.177811 199.559058 384.48 221.4 384.48 
C 243.240942 384.48 264.869509 380.177811 285.047908 371.819644 
C 305.226308 363.461477 323.562121 351.209878 339.006 335.766 
C 354.449878 320.322121 366.701477 301.986308 375.059644 281.807908 
C 383.417811 261.629509 387.72 240.000942 387.72 218.16 
M 221.4 218.16 
C 221.4 218.16 221.4 218.16 221.4 218.16 
C 221.4 218.16 221.4 218.16 221.4 218.16 
C 221.4 218.16 221.4 218.16 221.4 218.16 
C 221.4 218.16 221.4 218.16 221.4 218.16 
C 221.4 218.16 221.4 218.16 221.4 218.16 
C 221.4 218.16 221.4 218.16 221.4 218.16 
C 221.4 218.16 221.4 218.16 221.4 218.16 
C 221.4 218.16 221.4 218.16 221.4 218.16 
C 221.4 218.16 221.4 218.16 221.4 218.16 
C 221.4 218.16 221.4 218.16 221.4 218.16 
C 221.4 218.16 221.4 218.16 221.4 218.16 
C 221.4 218.16 221.4 218.16 221.4 218.16 
C 221.4 218.16 221.4 218.16 221.4 218.16 
C 221.4 218.16 221.4 218.16 221.4 218.16 
C 221.4 218.16 221.4 218.16 221.4 218.16 
C 221.4 218.16 221.4 218.16 221.4 218.16 
z
" style="fill: #ffffff"/>
   </g>
   <g id="patch_3">
    <path d="M 303.071436 218.16 
L 275.971506 149.729496 
L 217.325234 200.307284 
L 199.454593 207.591649 
L 133.873116 260.310726 
L 196.721944 326.281627 
L 250.383821 254.504562 
z
" clip-path="url(#pbe8e69e7f7)" style="fill: #1f77b4; opacity: 0.1"/>
   </g>
   <g id="patch_4">
    <path d="M 286.772076 218.16 
L 272.570185 153.994618 
M 71.550858 145.996457 
L 71.550858 145.996457 
M 188.29669 363.195077 
L 188.29669 363.195077 
" clip-path="url(#pbe8e69e7f7)" style="fill: #ff7f0e; opacity: 0.1"/>
   </g>
   <g id="patch_5">
    <path d="M 309.574548 218.16 
L 286.937657 135.978378 
L 219.057287 207.895904 
L 197.633926 206.714862 
L 90.282001 281.303101 
L 193.431784 340.696763 
L 255.75542 261.240334 
z
" clip-path="url(#pbe8e69e7f7)" style="fill: #2ca02c; opacity: 0.1"/>
   </g>
   <g id="patch_6">
    <path d="M 326.198232 218.16 
L 287.375784 135.428983 
L 206.011991 150.740728 
L 131.565439 174.897956 
L 221.4 218.16 
L 199.087788 315.916187 
" clip-path="url(#pbe8e69e7f7)" style="fill: #d62728; opacity: 0.1"/>
   </g>
   <g id="patch_7">
    <path d="M 320.451876 218.16 
L 283.287458 140.555582 
L 212.357301 178.541347 
L 136.765205 177.402031 
L 221.4 218.16 
L 184.390318 380.31001 
" clip-path="url(#pbe8e69e7f7)" style="fill: #9467bd; opacity: 0.1"/>
   </g>
   <g id="patch_8">
    <path d="M 320.377032 218.16 
L 293.475868 127.779721 
M 71.550858 145.996457 
L 71.550858 145.996457 
M 184.390318 380.31001 
L 184.390318 380.31001 
" clip-path="url(#pbe8e69e7f7)" style="fill: #8c564b; opacity: 0.1"/>
   </g>
   <g id="matplotlib.axis_1">
    <g id="xtick_1">
     <g id="line2d_1">
      <path d="M 221.4 218.16 
L 387.72 218.16 
" clip-path="url(#pbe8e69e7f7)" style="fill: none; stroke: #b0b0b0; stroke-width: 0.8; stroke-linecap: square"/>
     </g>
     <g id="text_1">
      <text style="fill: #808080; font: 12px 'DejaVu Sans', 'Bitstream Vera Sans', 'Computer Modern Sans Serif', 'Lucida Grande', 'Verdana', 'Geneva', 'Lucid', 'Arial', 'Helvetica', 'Avant Garde', sans-serif; text-anchor: middle" x="401.72" y="221.47125" transform="rotate(-0 401.72 221.47125)">Scalability-Adaptivity</text>
     </g>
    </g>
    <g id="xtick_2">
     <g id="line2d_2">
      <path d="M 221.4 218.16 
L 325.098824 88.125788 
" clip-path="url(#pbe8e69e7f7)" style="fill: none; stroke: #b0b0b0; stroke-width: 0.8; stroke-linecap: square"/>
     </g>
     <g id="text_2">
      <text style="fill: #808080; font: 12px 'DejaVu Sans', 'Bitstream Vera Sans', 'Computer Modern Sans Serif', 'Lucida Grande', 'Verdana', 'Geneva', 'Lucid', 'Arial', 'Helvetica', 'Avant Garde', sans-serif; text-anchor: middle" x="333.827681" y="80.491397" transform="rotate(-0 333.827681 80.491397)">Fault Tolerance-Adaptivity</text>
     </g>
    </g>
    <g id="xtick_3">
     <g id="line2d_3">
      <path d="M 221.4 218.16 
L 184.390318 56.00999 
" clip-path="url(#pbe8e69e7f7)" style="fill: none; stroke: #b0b0b0; stroke-width: 0.8; stroke-linecap: square"/>
     </g>
     <g id="text_3">
      <text style="fill: #808080; font: 12px 'DejaVu Sans', 'Bitstream Vera Sans', 'Computer Modern Sans Serif', 'Lucida Grande', 'Verdana', 'Geneva', 'Lucid', 'Arial', 'Helvetica', 'Avant Garde', sans-serif; text-anchor: middle" x="181.275025" y="45.672249" transform="rotate(-0 181.275025 45.672249)">Recoverability-Adaptivity</text>
     </g>
    </g>
    <g id="xtick_4">
     <g id="line2d_4">
      <path d="M 221.4 218.16 
L 71.550858 145.996457 
" clip-path="url(#pbe8e69e7f7)" style="fill: none; stroke: #b0b0b0; stroke-width: 0.8; stroke-linecap: square"/>
     </g>
     <g id="text_4">
      <text style="fill: #808080; font: 12px 'DejaVu Sans', 'Bitstream Vera Sans', 'Computer Modern Sans Serif', 'Lucida Grande', 'Verdana', 'Geneva', 'Lucid', 'Arial', 'Helvetica', 'Avant Garde', sans-serif; text-anchor: middle" x="58.937294" y="143.233334" transform="rotate(-0 58.937294 143.233334)">Resistance-Adaptivity</text>
     </g>
    </g>
    <g id="xtick_5">
     <g id="line2d_5">
      <path d="M 221.4 218.16 
L 71.550858 290.323543 
" clip-path="url(#pbe8e69e7f7)" style="fill: none; stroke: #b0b0b0; stroke-width: 0.8; stroke-linecap: square"/>
     </g>
     <g id="text_5">
      <text style="fill: #808080; font: 12px 'DejaVu Sans', 'Bitstream Vera Sans', 'Computer Modern Sans Serif', 'Lucida Grande', 'Verdana', 'Geneva', 'Lucid', 'Arial', 'Helvetica', 'Avant Garde', sans-serif; text-anchor: middle" x="58.937294" y="299.709166" transform="rotate(-0 58.937294 299.709166)">Observability-Adaptivity</text>
     </g>
    </g>
    <g id="xtick_6">
     <g id="line2d_6">
      <path d="M 221.4 218.16 
L 184.390318 380.31001 
" clip-path="url(#pbe8e69e7f7)" style="fill: none; stroke: #b0b0b0; stroke-width: 0.8; stroke-linecap: square"/>
     </g>
     <g id="text_6">
      <text style="fill: #808080; font: 12px 'DejaVu Sans', 'Bitstream Vera Sans', 'Computer Modern Sans Serif', 'Lucida Grande', 'Verdana', 'Geneva', 'Lucid', 'Arial', 'Helvetica', 'Avant Garde', sans-serif; text-anchor: middle" x="181.275025" y="397.270251" transform="rotate(-0 181.275025 397.270251)">BlastRadius-Adaptivity</text>
     </g>
    </g>
    <g id="xtick_7">
     <g id="line2d_7">
      <path d="M 221.4 218.16 
L 325.098824 348.194212 
" clip-path="url(#pbe8e69e7f7)" style="fill: none; stroke: #b0b0b0; stroke-width: 0.8; stroke-linecap: square"/>
     </g>
     <g id="text_7">
      <text style="fill: #808080; font: 12px 'DejaVu Sans', 'Bitstream Vera Sans', 'Computer Modern Sans Serif', 'Lucida Grande', 'Verdana', 'Geneva', 'Lucid', 'Arial', 'Helvetica', 'Avant Garde', sans-serif; text-anchor: middle" x="333.827681" y="362.451103" transform="rotate(-0 333.827681 362.451103)">Self-Organizing-Adaptivity</text>
     </g>
    </g>
   </g>
   <g id="matplotlib.axis_2">
    <g id="ytick_1">
     <g id="line2d_8">
      <path d="M 254.664 218.16 
C 254.664 213.791812 253.803562 209.466098 252.131929 205.430418 
C 250.460295 201.394738 248.009976 197.727576 244.9212 194.6388 
C 241.832424 191.550024 238.165262 189.099705 234.129582 187.428071 
C 230.093902 185.756438 225.768188 184.896 221.4 184.896 
C 217.031812 184.896 212.706098 185.756438 208.670418 187.428071 
C 204.634738 189.099705 200.967576 191.550024 197.8788 194.6388 
C 194.790024 197.727576 192.339705 201.394738 190.668071 205.430418 
C 188.996438 209.466098 188.136 213.791812 188.136 218.16 
C 188.136 222.528188 188.996438 226.853902 190.668071 230.889582 
C 192.339705 234.925262 194.790024 238.592424 197.8788 241.6812 
C 200.967576 244.769976 204.634738 247.220295 208.670418 248.891929 
C 212.706098 250.563562 217.031812 251.424 221.4 251.424 
C 225.768188 251.424 230.093902 250.563562 234.129582 248.891929 
C 238.165262 247.220295 241.832424 244.769976 244.9212 241.6812 
C 248.009976 238.592424 250.460295 234.925262 252.131929 230.889582 
C 253.803562 226.853902 254.664 222.528188 254.664 218.16 
" clip-path="url(#pbe8e69e7f7)" style="fill: none; stroke: #b0b0b0; stroke-width: 0.8; stroke-linecap: square"/>
     </g>
     <g id="text_8">
      <text style="fill: #808080; font: 10px 'DejaVu Sans', 'Bitstream Vera Sans', 'Computer Modern Sans Serif', 'Lucida Grande', 'Verdana', 'Geneva', 'Lucid', 'Arial', 'Helvetica', 'Avant Garde', sans-serif; text-anchor: start" x="252.131929" y="203.350731" transform="rotate(-0 252.131929 203.350731)">0.2</text>
     </g>
    </g>
    <g id="ytick_2">
     <g id="line2d_9">
      <path d="M 287.928 218.16 
C 287.928 209.423623 286.207124 200.772196 282.863858 192.700837 
C 279.520591 184.629477 274.619951 177.295151 268.4424 171.1176 
C 262.264849 164.940049 254.930523 160.039409 246.859163 156.696142 
C 238.787804 153.352876 230.136377 151.632 221.4 151.632 
C 212.663623 151.632 204.012196 153.352876 195.940837 156.696142 
C 187.869477 160.039409 180.535151 164.940049 174.3576 171.1176 
C 168.180049 177.295151 163.279409 184.629477 159.936142 192.700837 
C 156.592876 200.772196 154.872 209.423623 154.872 218.16 
C 154.872 226.896377 156.592876 235.547804 159.936142 243.619163 
C 163.279409 251.690523 168.180049 259.024849 174.3576 265.2024 
C 180.535151 271.379951 187.869477 276.280591 195.940837 279.623858 
C 204.012196 282.967124 212.663623 284.688 221.4 284.688 
C 230.136377 284.688 238.787804 282.967124 246.859163 279.623858 
C 254.930523 276.280591 262.264849 271.379951 268.4424 265.2024 
C 274.619951 259.024849 279.520591 251.690523 282.863858 243.619163 
C 286.207124 235.547804 287.928 226.896377 287.928 218.16 
" clip-path="url(#pbe8e69e7f7)" style="fill: none; stroke: #b0b0b0; stroke-width: 0.8; stroke-linecap: square"/>
     </g>
     <g id="text_9">
      <text style="fill: #808080; font: 10px 'DejaVu Sans', 'Bitstream Vera Sans', 'Computer Modern Sans Serif', 'Lucida Grande', 'Verdana', 'Geneva', 'Lucid', 'Arial', 'Helvetica', 'Avant Garde', sans-serif; text-anchor: start" x="282.863858" y="190.621149" transform="rotate(-0 282.863858 190.621149)">0.4</text>
     </g>
    </g>
    <g id="ytick_3">
     <g id="line2d_10">
      <path d="M 321.192 218.16 
C 321.192 205.055435 318.610686 192.078295 313.595786 179.971255 
C 308.580886 167.864215 301.229927 156.862727 291.9636 147.5964 
C 282.697273 138.330073 271.695785 130.979114 259.588745 125.964214 
C 247.481705 120.949314 234.504565 118.368 221.4 118.368 
C 208.295435 118.368 195.318295 120.949314 183.211255 125.964214 
C 171.104215 130.979114 160.102727 138.330073 150.8364 147.5964 
C 141.570073 156.862727 134.219114 167.864215 129.204214 179.971255 
C 124.189314 192.078295 121.608 205.055435 121.608 218.16 
C 121.608 231.264565 124.189314 244.241705 129.204214 256.348745 
C 134.219114 268.455785 141.570073 279.457273 150.8364 288.7236 
C 160.102727 297.989927 171.104215 305.340886 183.211255 310.355786 
C 195.318295 315.370686 208.295435 317.952 221.4 317.952 
C 234.504565 317.952 247.481705 315.370686 259.588745 310.355786 
C 271.695785 305.340886 282.697273 297.989927 291.9636 288.7236 
C 301.229927 279.457273 308.580886 268.455785 313.595786 256.348745 
C 318.610686 244.241705 321.192 231.264565 321.192 218.16 
" clip-path="url(#pbe8e69e7f7)" style="fill: none; stroke: #b0b0b0; stroke-width: 0.8; stroke-linecap: square"/>
     </g>
     <g id="text_10">
      <text style="fill: #808080; font: 10px 'DejaVu Sans', 'Bitstream Vera Sans', 'Computer Modern Sans Serif', 'Lucida Grande', 'Verdana', 'Geneva', 'Lucid', 'Arial', 'Helvetica', 'Avant Garde', sans-serif; text-anchor: start" x="313.595786" y="177.891567" transform="rotate(-0 313.595786 177.891567)">0.6</text>
     </g>
    </g>
    <g id="ytick_4">
     <g id="line2d_11">
      <path d="M 354.456 218.16 
C 354.456 200.687246 351.014248 183.384393 344.327715 167.241673 
C 337.641182 151.098954 327.839903 136.430303 315.4848 124.0752 
C 303.129697 111.720097 288.461046 101.918818 272.318327 95.232285 
C 256.175607 88.545752 238.872754 85.104 221.4 85.104 
C 203.927246 85.104 186.624393 88.545752 170.481673 95.232285 
C 154.338954 101.918818 139.670303 111.720097 127.3152 124.0752 
C 114.960097 136.430303 105.158818 151.098954 98.472285 167.241673 
C 91.785752 183.384393 88.344 200.687246 88.344 218.16 
C 88.344 235.632754 91.785752 252.935607 98.472285 269.078327 
C 105.158818 285.221046 114.960097 299.889697 127.3152 312.2448 
C 139.670303 324.599903 154.338954 334.401182 170.481673 341.087715 
C 186.624393 347.774248 203.927246 351.216 221.4 351.216 
C 238.872754 351.216 256.175607 347.774248 272.318327 341.087715 
C 288.461046 334.401182 303.129697 324.599903 315.4848 312.2448 
C 327.839903 299.889697 337.641182 285.221046 344.327715 269.078327 
C 351.014248 252.935607 354.456 235.632754 354.456 218.16 
" clip-path="url(#pbe8e69e7f7)" style="fill: none; stroke: #b0b0b0; stroke-width: 0.8; stroke-linecap: square"/>
     </g>
     <g id="text_11">
      <text style="fill: #808080; font: 10px 'DejaVu Sans', 'Bitstream Vera Sans', 'Computer Modern Sans Serif', 'Lucida Grande', 'Verdana', 'Geneva', 'Lucid', 'Arial', 'Helvetica', 'Avant Garde', sans-serif; text-anchor: start" x="344.327715" y="165.161986" transform="rotate(-0 344.327715 165.161986)">0.8</text>
     </g>
    </g>
    <g id="ytick_5">
     <g id="line2d_12">
      <path d="M 387.72 218.16 
C 387.72 196.319058 383.417811 174.690491 375.059644 154.512092 
C 366.701477 134.333692 354.449878 115.997879 339.006 100.554 
C 323.562121 85.110122 305.226308 72.858523 285.047908 64.500356 
C 264.869509 56.142189 243.240942 51.84 221.4 51.84 
C 199.559058 51.84 177.930491 56.142189 157.752092 64.500356 
C 137.573692 72.858523 119.237879 85.110122 103.794 100.554 
C 88.350122 115.997879 76.098523 134.333692 67.740356 154.512092 
C 59.382189 174.690491 55.08 196.319058 55.08 218.16 
C 55.08 240.000942 59.382189 261.629509 67.740356 281.807908 
C 76.098523 301.986308 88.350122 320.322121 103.794 335.766 
C 119.237879 351.209878 137.573692 363.461477 157.752092 371.819644 
C 177.930491 380.177811 199.559058 384.48 221.4 384.48 
C 243.240942 384.48 264.869509 380.177811 285.047908 371.819644 
C 305.226308 363.461477 323.562121 351.209878 339.006 335.766 
C 354.449878 320.322121 366.701477 301.986308 375.059644 281.807908 
C 383.417811 261.629509 387.72 240.000942 387.72 218.16 
" clip-path="url(#pbe8e69e7f7)" style="fill: none; stroke: #b0b0b0; stroke-width: 0.8; stroke-linecap: square"/>
     </g>
     <g id="text_12">
      <text style="fill: #808080; font: 10px 'DejaVu Sans', 'Bitstream Vera Sans', 'Computer Modern Sans Serif', 'Lucida Grande', 'Verdana', 'Geneva', 'Lucid', 'Arial', 'Helvetica', 'Avant Garde', sans-serif; text-anchor: start" x="375.059644" y="152.432404" transform="rotate(-0 375.059644 152.432404)">1.0</text>
     </g>
    </g>
   </g>
   <g id="line2d_13">
    <path d="M 303.071436 218.16 
L 275.971506 149.729496 
L 217.325234 200.307284 
L 199.454593 207.591649 
L 133.873116 260.310726 
L 196.721944 326.281627 
L 250.383821 254.504562 
L 303.071436 218.16 
" clip-path="url(#pbe8e69e7f7)" style="fill: none; stroke: #1f77b4; stroke-linecap: square"/>
    <defs>
     <path id="maf2309410e" d="M 0 2.5 
C 0.663008 2.5 1.29895 2.236584 1.767767 1.767767 
C 2.236584 1.29895 2.5 0.663008 2.5 0 
C 2.5 -0.663008 2.236584 -1.29895 1.767767 -1.767767 
C 1.29895 -2.236584 0.663008 -2.5 0 -2.5 
C -0.663008 -2.5 -1.29895 -2.236584 -1.767767 -1.767767 
C -2.236584 -1.29895 -2.5 -0.663008 -2.5 0 
C -2.5 0.663008 -2.236584 1.29895 -1.767767 1.767767 
C -1.29895 2.236584 -0.663008 2.5 0 2.5 
z
" style="stroke: #1f77b4"/>
    </defs>
    <g clip-path="url(#pbe8e69e7f7)">
     <use xlink:href="#maf2309410e" x="303.071436" y="218.16" style="fill: #1f77b4; stroke: #1f77b4"/>
     <use xlink:href="#maf2309410e" x="275.971506" y="149.729496" style="fill: #1f77b4; stroke: #1f77b4"/>
     <use xlink:href="#maf2309410e" x="217.325234" y="200.307284" style="fill: #1f77b4; stroke: #1f77b4"/>
     <use xlink:href="#maf2309410e" x="199.454593" y="207.591649" style="fill: #1f77b4; stroke: #1f77b4"/>
     <use xlink:href="#maf2309410e" x="133.873116" y="260.310726" style="fill: #1f77b4; stroke: #1f77b4"/>
     <use xlink:href="#maf2309410e" x="196.721944" y="326.281627" style="fill: #1f77b4; stroke: #1f77b4"/>
     <use xlink:href="#maf2309410e" x="250.383821" y="254.504562" style="fill: #1f77b4; stroke: #1f77b4"/>
     <use xlink:href="#maf2309410e" x="303.071436" y="218.16" style="fill: #1f77b4; stroke: #1f77b4"/>
    </g>
   </g>
   <g id="line2d_14">
    <path d="M 286.772076 218.16 
L 272.570185 153.994618 
M 71.550858 145.996457 
M 188.29669 363.195077 
M 286.772076 218.16 
" clip-path="url(#pbe8e69e7f7)" style="fill: none; stroke: #ff7f0e; stroke-linecap: square"/>
    <defs>
     <path id="m347aab6280" d="M 0 2.5 
C 0.663008 2.5 1.29895 2.236584 1.767767 1.767767 
C 2.236584 1.29895 2.5 0.663008 2.5 0 
C 2.5 -0.663008 2.236584 -1.29895 1.767767 -1.767767 
C 1.29895 -2.236584 0.663008 -2.5 0 -2.5 
C -0.663008 -2.5 -1.29895 -2.236584 -1.767767 -1.767767 
C -2.236584 -1.29895 -2.5 -0.663008 -2.5 0 
C -2.5 0.663008 -2.236584 1.29895 -1.767767 1.767767 
C -1.29895 2.236584 -0.663008 2.5 0 2.5 
z
" style="stroke: #ff7f0e"/>
    </defs>
    <g clip-path="url(#pbe8e69e7f7)">
     <use xlink:href="#m347aab6280" x="286.772076" y="218.16" style="fill: #ff7f0e; stroke: #ff7f0e"/>
     <use xlink:href="#m347aab6280" x="272.570185" y="153.994618" style="fill: #ff7f0e; stroke: #ff7f0e"/>
     <use xlink:href="#m347aab6280" x="71.550858" y="145.996457" style="fill: #ff7f0e; stroke: #ff7f0e"/>
     <use xlink:href="#m347aab6280" x="188.29669" y="363.195077" style="fill: #ff7f0e; stroke: #ff7f0e"/>
     <use xlink:href="#m347aab6280" x="286.772076" y="218.16" style="fill: #ff7f0e; stroke: #ff7f0e"/>
    </g>
   </g>
   <g id="line2d_15">
    <path d="M 309.574548 218.16 
L 286.937657 135.978378 
L 219.057287 207.895904 
L 197.633926 206.714862 
L 90.282001 281.303101 
L 193.431784 340.696763 
L 255.75542 261.240334 
L 309.574548 218.16 
" clip-path="url(#pbe8e69e7f7)" style="fill: none; stroke: #2ca02c; stroke-linecap: square"/>
    <defs>
     <path id="m37af2bb53e" d="M 0 2.5 
C 0.663008 2.5 1.29895 2.236584 1.767767 1.767767 
C 2.236584 1.29895 2.5 0.663008 2.5 0 
C 2.5 -0.663008 2.236584 -1.29895 1.767767 -1.767767 
C 1.29895 -2.236584 0.663008 -2.5 0 -2.5 
C -0.663008 -2.5 -1.29895 -2.236584 -1.767767 -1.767767 
C -2.236584 -1.29895 -2.5 -0.663008 -2.5 0 
C -2.5 0.663008 -2.236584 1.29895 -1.767767 1.767767 
C -1.29895 2.236584 -0.663008 2.5 0 2.5 
z
" style="stroke: #2ca02c"/>
    </defs>
    <g clip-path="url(#pbe8e69e7f7)">
     <use xlink:href="#m37af2bb53e" x="309.574548" y="218.16" style="fill: #2ca02c; stroke: #2ca02c"/>
     <use xlink:href="#m37af2bb53e" x="286.937657" y="135.978378" style="fill: #2ca02c; stroke: #2ca02c"/>
     <use xlink:href="#m37af2bb53e" x="219.057287" y="207.895904" style="fill: #2ca02c; stroke: #2ca02c"/>
     <use xlink:href="#m37af2bb53e" x="197.633926" y="206.714862" style="fill: #2ca02c; stroke: #2ca02c"/>
     <use xlink:href="#m37af2bb53e" x="90.282001" y="281.303101" style="fill: #2ca02c; stroke: #2ca02c"/>
     <use xlink:href="#m37af2bb53e" x="193.431784" y="340.696763" style="fill: #2ca02c; stroke: #2ca02c"/>
     <use xlink:href="#m37af2bb53e" x="255.75542" y="261.240334" style="fill: #2ca02c; stroke: #2ca02c"/>
     <use xlink:href="#m37af2bb53e" x="309.574548" y="218.16" style="fill: #2ca02c; stroke: #2ca02c"/>
    </g>
   </g>
   <g id="line2d_16">
    <path d="M 326.198232 218.16 
L 287.375784 135.428983 
L 206.011991 150.740728 
L 131.565439 174.897956 
L 221.4 218.16 
L 199.087788 315.916187 
M 326.198232 218.16 
" clip-path="url(#pbe8e69e7f7)" style="fill: none; stroke: #d62728; stroke-linecap: square"/>
    <defs>
     <path id="m80dcc43176" d="M 0 2.5 
C 0.663008 2.5 1.29895 2.236584 1.767767 1.767767 
C 2.236584 1.29895 2.5 0.663008 2.5 0 
C 2.5 -0.663008 2.236584 -1.29895 1.767767 -1.767767 
C 1.29895 -2.236584 0.663008 -2.5 0 -2.5 
C -0.663008 -2.5 -1.29895 -2.236584 -1.767767 -1.767767 
C -2.236584 -1.29895 -2.5 -0.663008 -2.5 0 
C -2.5 0.663008 -2.236584 1.29895 -1.767767 1.767767 
C -1.29895 2.236584 -0.663008 2.5 0 2.5 
z
" style="stroke: #d62728"/>
    </defs>
    <g clip-path="url(#pbe8e69e7f7)">
     <use xlink:href="#m80dcc43176" x="326.198232" y="218.16" style="fill: #d62728; stroke: #d62728"/>
     <use xlink:href="#m80dcc43176" x="287.375784" y="135.428983" style="fill: #d62728; stroke: #d62728"/>
     <use xlink:href="#m80dcc43176" x="206.011991" y="150.740728" style="fill: #d62728; stroke: #d62728"/>
     <use xlink:href="#m80dcc43176" x="131.565439" y="174.897956" style="fill: #d62728; stroke: #d62728"/>
     <use xlink:href="#m80dcc43176" x="221.4" y="218.16" style="fill: #d62728; stroke: #d62728"/>
     <use xlink:href="#m80dcc43176" x="199.087788" y="315.916187" style="fill: #d62728; stroke: #d62728"/>
     <use xlink:href="#m80dcc43176" x="326.198232" y="218.16" style="fill: #d62728; stroke: #d62728"/>
    </g>
   </g>
   <g id="line2d_17">
    <path d="M 320.451876 218.16 
L 283.287458 140.555582 
L 212.357301 178.541347 
L 136.765205 177.402031 
L 221.4 218.16 
L 184.390318 380.31001 
M 320.451876 218.16 
" clip-path="url(#pbe8e69e7f7)" style="fill: none; stroke: #9467bd; stroke-linecap: square"/>
    <defs>
     <path id="m707acf7595" d="M 0 2.5 
C 0.663008 2.5 1.29895 2.236584 1.767767 1.767767 
C 2.236584 1.29895 2.5 0.663008 2.5 0 
C 2.5 -0.663008 2.236584 -1.29895 1.767767 -1.767767 
C 1.29895 -2.236584 0.663008 -2.5 0 -2.5 
C -0.663008 -2.5 -1.29895 -2.236584 -1.767767 -1.767767 
C -2.236584 -1.29895 -2.5 -0.663008 -2.5 0 
C -2.5 0.663008 -2.236584 1.29895 -1.767767 1.767767 
C -1.29895 2.236584 -0.663008 2.5 0 2.5 
z
" style="stroke: #9467bd"/>
    </defs>
    <g clip-path="url(#pbe8e69e7f7)">
     <use xlink:href="#m707acf7595" x="320.451876" y="218.16" style="fill: #9467bd; stroke: #9467bd"/>
     <use xlink:href="#m707acf7595" x="283.287458" y="140.555582" style="fill: #9467bd; stroke: #9467bd"/>
     <use xlink:href="#m707acf7595" x="212.357301" y="178.541347" style="fill: #9467bd; stroke: #9467bd"/>
     <use xlink:href="#m707acf7595" x="136.765205" y="177.402031" style="fill: #9467bd; stroke: #9467bd"/>
     <use xlink:href="#m707acf7595" x="221.4" y="218.16" style="fill: #9467bd; stroke: #9467bd"/>
     <use xlink:href="#m707acf7595" x="184.390318" y="380.31001" style="fill: #9467bd; stroke: #9467bd"/>
     <use xlink:href="#m707acf7595" x="320.451876" y="218.16" style="fill: #9467bd; stroke: #9467bd"/>
    </g>
   </g>
   <g id="line2d_18">
    <path d="M 320.377032 218.16 
L 293.475868 127.779721 
M 71.550858 145.996457 
M 184.390318 380.31001 
M 320.377032 218.16 
" clip-path="url(#pbe8e69e7f7)" style="fill: none; stroke: #8c564b; stroke-linecap: square"/>
    <defs>
     <path id="md0d5b24689" d="M 0 2.5 
C 0.663008 2.5 1.29895 2.236584 1.767767 1.767767 
C 2.236584 1.29895 2.5 0.663008 2.5 0 
C 2.5 -0.663008 2.236584 -1.29895 1.767767 -1.767767 
C 1.29895 -2.236584 0.663008 -2.5 0 -2.5 
C -0.663008 -2.5 -1.29895 -2.236584 -1.767767 -1.767767 
C -2.236584 -1.29895 -2.5 -0.663008 -2.5 0 
C -2.5 0.663008 -2.236584 1.29895 -1.767767 1.767767 
C -1.29895 2.236584 -0.663008 2.5 0 2.5 
z
" style="stroke: #8c564b"/>
    </defs>
    <g clip-path="url(#pbe8e69e7f7)">
     <use xlink:href="#md0d5b24689" x="320.377032" y="218.16" style="fill: #8c564b; stroke: #8c564b"/>
     <use xlink:href="#md0d5b24689" x="293.475868" y="127.779721" style="fill: #8c564b; stroke: #8c564b"/>
     <use xlink:href="#md0d5b24689" x="71.550858" y="145.996457" style="fill: #8c564b; stroke: #8c564b"/>
     <use xlink:href="#md0d5b24689" x="184.390318" y="380.31001" style="fill: #8c564b; stroke: #8c564b"/>
     <use xlink:href="#md0d5b24689" x="320.377032" y="218.16" style="fill: #8c564b; stroke: #8c564b"/>
    </g>
   </g>
   <g id="patch_9">
    <path d="M 387.72 218.16 
C 387.72 196.319058 383.417811 174.690491 375.059644 154.512092 
C 366.701477 134.333692 354.449878 115.997879 339.006 100.554 
C 323.562121 85.110122 305.226308 72.858523 285.047908 64.500356 
C 264.869509 56.142189 243.240942 51.84 221.4 51.84 
C 199.559058 51.84 177.930491 56.142189 157.752092 64.500356 
C 137.573692 72.858523 119.237879 85.110122 103.794 100.554 
C 88.350122 115.997879 76.098523 134.333692 67.740356 154.512092 
C 59.382189 174.690491 55.08 196.319058 55.08 218.16 
C 55.08 240.000942 59.382189 261.629509 67.740356 281.807908 
C 76.098523 301.986308 88.350122 320.322121 103.794 335.766 
C 119.237879 351.209878 137.573692 363.461477 157.752092 371.819644 
C 177.930491 380.177811 199.559058 384.48 221.4 384.48 
C 243.240942 384.48 264.869509 380.177811 285.047908 371.819644 
C 305.226308 363.461477 323.562121 351.209878 339.006 335.766 
C 354.449878 320.322121 366.701477 301.986308 375.059644 281.807908 
C 383.417811 261.629509 387.72 240.000942 387.72 218.16 
" style="fill: none; stroke: #000000; stroke-width: 0.8; stroke-linejoin: miter; stroke-linecap: square"/>
   </g>
   <g id="text_13">
    <text style="font: 12px 'DejaVu Sans', 'Bitstream Vera Sans', 'Computer Modern Sans Serif', 'Lucida Grande', 'Verdana', 'Geneva', 'Lucid', 'Arial', 'Helvetica', 'Avant Garde', sans-serif; text-anchor: middle" x="221.4" y="30.554124" transform="rotate(-0 221.4 30.554124)">System 0</text>
   </g>
   <g id="legend_1">
    <g id="patch_10">
     <path d="M 473.257187 379.48 
L 547.04 379.48 
Q 549.04 379.48 549.04 377.48 
L 549.04 290.41125 
Q 549.04 288.41125 547.04 288.41125 
L 473.257187 288.41125 
Q 471.257187 288.41125 471.257187 290.41125 
L 471.257187 377.48 
Q 471.257187 379.48 473.257187 379.48 
z
" style="fill: #ffffff; opacity: 0.8; stroke: #cccccc; stroke-linejoin: miter"/>
    </g>
    <g id="line2d_19">
     <path style="fill: none; stroke: #1f77b4; stroke-linecap: square"/>
     <g>
      <use xlink:href="#maf2309410e" x="485.257187" y="296.509688" style="fill: #1f77b4; stroke: #1f77b4"/>
     </g>
    </g>
    <g id="text_14">
     <text style="font: 10px 'DejaVu Sans', 'Bitstream Vera Sans', 'Computer Modern Sans Serif', 'Lucida Grande', 'Verdana', 'Geneva', 'Lucid', 'Arial', 'Helvetica', 'Avant Garde', sans-serif; text-anchor: start" x="503.257187" y="300.009688" transform="rotate(-0 503.257187 300.009688)">cpu</text>
    </g>
    <g id="line2d_20">
     <path style="fill: none; stroke: #ff7f0e; stroke-linecap: square"/>
     <g>
      <use xlink:href="#m347aab6280" x="485.257187" y="311.187813" style="fill: #ff7f0e; stroke: #ff7f0e"/>
     </g>
    </g>
    <g id="text_15">
     <text style="font: 10px 'DejaVu Sans', 'Bitstream Vera Sans', 'Computer Modern Sans Serif', 'Lucida Grande', 'Verdana', 'Geneva', 'Lucid', 'Arial', 'Helvetica', 'Avant Garde', sans-serif; text-anchor: start" x="503.257187" y="314.687813" transform="rotate(-0 503.257187 314.687813)">delete</text>
    </g>
    <g id="line2d_21">
     <path style="fill: none; stroke: #2ca02c; stroke-linecap: square"/>
     <g>
      <use xlink:href="#m37af2bb53e" x="485.257187" y="325.865938" style="fill: #2ca02c; stroke: #2ca02c"/>
     </g>
    </g>
    <g id="text_16">
     <text style="font: 10px 'DejaVu Sans', 'Bitstream Vera Sans', 'Computer Modern Sans Serif', 'Lucida Grande', 'Verdana', 'Geneva', 'Lucid', 'Arial', 'Helvetica', 'Avant Garde', sans-serif; text-anchor: start" x="503.257187" y="329.365938" transform="rotate(-0 503.257187 329.365938)">load</text>
    </g>
    <g id="line2d_22">
     <path style="fill: none; stroke: #d62728; stroke-linecap: square"/>
     <g>
      <use xlink:href="#m80dcc43176" x="485.257187" y="340.544062" style="fill: #d62728; stroke: #d62728"/>
     </g>
    </g>
    <g id="text_17">
     <text style="font: 10px 'DejaVu Sans', 'Bitstream Vera Sans', 'Computer Modern Sans Serif', 'Lucida Grande', 'Verdana', 'Geneva', 'Lucid', 'Arial', 'Helvetica', 'Avant Garde', sans-serif; text-anchor: start" x="503.257187" y="344.044062" transform="rotate(-0 503.257187 344.044062)">memory</text>
    </g>
    <g id="line2d_23">
     <path style="fill: none; stroke: #9467bd; stroke-linecap: square"/>
     <g>
      <use xlink:href="#m707acf7595" x="485.257187" y="355.222188" style="fill: #9467bd; stroke: #9467bd"/>
     </g>
    </g>
    <g id="text_18">
     <text style="font: 10px 'DejaVu Sans', 'Bitstream Vera Sans', 'Computer Modern Sans Serif', 'Lucida Grande', 'Verdana', 'Geneva', 'Lucid', 'Arial', 'Helvetica', 'Avant Garde', sans-serif; text-anchor: start" x="503.257187" y="358.722188" transform="rotate(-0 503.257187 358.722188)">network</text>
    </g>
    <g id="line2d_24">
     <path style="fill: none; stroke: #8c564b; stroke-linecap: square"/>
     <g>
      <use xlink:href="#md0d5b24689" x="485.257187" y="369.900313" style="fill: #8c564b; stroke: #8c564b"/>
     </g>
    </g>
    <g id="text_19">
     <text style="font: 10px 'DejaVu Sans', 'Bitstream Vera Sans', 'Computer Modern Sans Serif', 'Lucida Grande', 'Verdana', 'Geneva', 'Lucid', 'Arial', 'Helvetica', 'Avant Garde', sans-serif; text-anchor: start" x="503.257187" y="373.400313" transform="rotate(-0 503.257187 373.400313)">update</text>
    </g>
   </g>
  </g>
 </g>
 <defs>
  <clipPath id="pbe8e69e7f7">
   <path d="M 387.72 218.16 
C 387.72 196.319058 383.417811 174.690491 375.059644 154.512092 
C 366.701477 134.333692 354.449878 115.997879 339.006 100.554 
C 323.562121 85.110122 305.226308 72.858523 285.047908 64.500356 
C 264.869509 56.142189 243.240942 51.84 221.4 51.84 
C 199.559058 51.84 177.930491 56.142189 157.752092 64.500356 
C 137.573692 72.858523 119.237879 85.110122 103.794 100.554 
C 88.350122 115.997879 76.098523 134.333692 67.740356 154.512092 
C 59.382189 174.690491 55.08 196.319058 55.08 218.16 
C 55.08 240.000942 59.382189 261.629509 67.740356 281.807908 
C 76.098523 301.986308 88.350122 320.322121 103.794 335.766 
C 119.237879 351.209878 137.573692 363.461477 157.752092 371.819644 
C 177.930491 380.177811 199.559058 384.48 221.4 384.48 
C 243.240942 384.48 264.869509 380.177811 285.047908 371.819644 
C 305.226308 363.461477 323.562121 351.209878 339.006 335.766 
C 354.449878 320.322121 366.701477 301.986308 375.059644 281.807908 
C 383.417811 261.629509 387.72 240.000942 387.72 218.16 
M 221.4 218.16 
C 221.4 218.16 221.4 218.16 221.4 218.16 
C 221.4 218.16 221.4 218.16 221.4 218.16 
C 221.4 218.16 221.4 218.16 221.4 218.16 
C 221.4 218.16 221.4 218.16 221.4 218.16 
C 221.4 218.16 221.4 218.16 221.4 218.16 
C 221.4 218.16 221.4 218.16 221.4 218.16 
C 221.4 218.16 221.4 218.16 221.4 218.16 
C 221.4 218.16 221.4 218.16 221.4 218.16 
C 221.4 218.16 221.4 218.16 221.4 218.16 
C 221.4 218.16 221.4 218.16 221.4 218.16 
C 221.4 218.16 221.4 218.16 221.4 218.16 
C 221.4 218.16 221.4 218.16 221.4 218.16 
C 221.4 218.16 221.4 218.16 221.4 218.16 
C 221.4 218.16 221.4 218.16 221.4 218.16 
C 221.4 218.16 221.4 218.16 221.4 218.16 
C 221.4 218.16 221.4 218.16 221.4 218.16 
z
"/>
  </clipPath>
 </defs>
</svg>
